HIERARCHY
ROOT Hips
{
 OFFSET 0.000000 0.000000 0.000000
 CHANNELS 6 Xposition Yposition Zposition Yrotation Xrotation Zrotation
 JOINT Chest
 {
  OFFSET 0.000000 10.354800 0.006500
  CHANNELS 3 Yrotation Xrotation Zrotation
  JOINT Chest2
  {
   OFFSET 0.000000 10.435800 -0.013200
   CHANNELS 3 Yrotation Xrotation Zrotation
   JOINT Chest3
   {
    OFFSET 0.000000 10.393700 0.000000
    CHANNELS 3 Yrotation Xrotation Zrotation
    JOINT Chest4
    {
     OFFSET 0.000000 10.383100 0.000000
     CHANNELS 3 Yrotation Xrotation Zrotation
     JOINT Neck
     {
      OFFSET 0.000000 15.694000 0.000000
      CHANNELS 3 Yrotation Xrotation Zrotation
      JOINT Head
      {
       OFFSET 0.000000 9.711000 -0.028000
       CHANNELS 3 Yrotation Xrotation Zrotation
       End Site
       {
        OFFSET 0.000000 18.578700 -0.014800
       }
      }
     }
     JOINT RightCollar
     {
      OFFSET -3.157200 10.367500 0.000000
      CHANNELS 3 Yrotation Xrotation Zrotation
      JOINT RightShoulder
      {
       OFFSET -14.482500 0.000000 0.000000
       CHANNELS 3 Yrotation Xrotation Zrotation
       JOINT RightElbow
       {
        OFFSET 0.000000 -31.707800 0.000000
        CHANNELS 3 Yrotation Xrotation Zrotation
        JOINT RightWrist
        {
         OFFSET 0.000000 -25.659300 0.000000
         CHANNELS 3 Yrotation Xrotation Zrotation
         End Site
         {
          OFFSET 0.000000 -18.994300 0.000000
         }
        }
       }
      }
     }
     JOINT LeftCollar
     {
      OFFSET 3.157200 10.367500 0.000000
      CHANNELS 3 Yrotation Xrotation Zrotation
      JOINT LeftShoulder
      {
       OFFSET 14.482500 0.000000 0.000000
       CHANNELS 3 Yrotation Xrotation Zrotation
       JOINT LeftElbow
       {
        OFFSET 0.000000 -31.707800 0.000000
        CHANNELS 3 Yrotation Xrotation Zrotation
        JOINT LeftWrist
        {
         OFFSET 0.000000 -25.659300 0.000000
         CHANNELS 3 Yrotation Xrotation Zrotation
         End Site
         {
          OFFSET 0.000000 -18.994300 0.000000
         }
        }
       }
      }
     }
    }
   }
  }
 }
 JOINT RightHip
 {
  OFFSET -8.365600 -0.032100 -0.003200
  CHANNELS 3 Yrotation Xrotation Zrotation
  JOINT RightKnee
  {
   OFFSET 0.000000 -43.980000 0.003100
   CHANNELS 3 Yrotation Xrotation Zrotation
   JOINT RightAnkle
   {
    OFFSET 0.000000 -42.882800 0.005200
    CHANNELS 3 Yrotation Xrotation Zrotation
    JOINT RightToe
    {
     OFFSET 0.000000 -4.915500 10.826300
     CHANNELS 3 Yrotation Xrotation Zrotation
     End Site
     {
      OFFSET 0.000000 -1.517500 6.175900
     }
    }
   }
  }
 }
 JOINT LeftHip
 {
  OFFSET 8.365600 -0.032100 -0.003200
  CHANNELS 3 Yrotation Xrotation Zrotation
  JOINT LeftKnee
  {
   OFFSET 0.000000 -43.980000 0.003100
   CHANNELS 3 Yrotation Xrotation Zrotation
   JOINT LeftAnkle
   {
    OFFSET 0.000000 -42.882800 0.005200
    CHANNELS 3 Yrotation Xrotation Zrotation
    JOINT LeftToe
    {
     OFFSET 0.000000 -4.915500 10.826300
     CHANNELS 3 Yrotation Xrotation Zrotation
     End Site
     {
      OFFSET 0.000000 -1.517500 6.175900
     }
    }
   }
  }
 }
}
MOTION
Frames: 6
Frame Time: 0.008333
101.846162 126.516172 131.235705 173.106932 -20.277677 -2.368437 -0.399239 12.466857 3.727167 -0.069870 0.973498 0.292853 -0.092326 1.678721 0.505476 -0.402372 11.301994 3.377589 0.841914 18.652301 -2.822240 1.528399 -6.021940 -3.177747 2.701169 7.282393 -7.397119 -16.688579 -20.759679 -20.685184 -145.007733 -57.346235 154.997697 -21.022837 -18.869561 -23.567752 -1.907498 9.003973 1.571293 30.998532 -17.977279 7.359455 164.193778 -52.635735 -172.005131 20.338407 -7.121578 33.309292 9.236755 -56.750000 -13.387829 -135.990608 70.976587 -128.655403 1.225691 -8.934773 -15.859478 -0.002125 -0.006504 -0.000965 -18.169222 -63.034735 1.368756 66.731802 85.202887 61.094383 -4.950757 -24.148840 -0.178501 -0.000192 -0.000273 -0.000087
101.846465 126.515587 131.235454 173.115036 -20.267031 -2.372710 -0.399887 12.465763 3.731978 -0.066268 0.970679 0.294217 -0.096954 1.681497 0.504570 -0.406016 11.298121 3.379005 0.848661 18.665389 -2.840496 1.558488 -5.986638 -3.225123 2.702079 7.278565 -7.400116 -16.694062 -20.760541 -20.679646 -145.007523 -57.354898 154.968049 -21.019212 -18.902498 -23.564600 -1.906437 8.997954 1.565503 30.992326 -17.983803 7.367825 164.212731 -52.607308 -172.023815 20.348653 -7.202924 33.387844 9.230705 -56.758334 -13.389044 -135.990905 70.976095 -128.653901 1.230987 -8.939142 -15.861780 -0.002879 -0.008999 -0.001307 -18.174313 -63.043880 1.368056 66.690854 85.199658 61.056074 -4.960440 -24.113179 -0.155667 0.001435 -0.002427 0.000652
101.846355 126.515057 131.234906 173.125778 -20.256945 -2.374719 -0.405087 12.464546 3.732332 -0.066276 0.973574 0.295648 -0.099918 1.674836 0.503044 -0.406999 11.304472 3.382699 0.850124 18.660219 -2.849721 1.593291 -5.955898 -3.267771 2.702018 7.269506 -7.405604 -16.697354 -20.763548 -20.673925 -145.002828 -57.357424 154.957877 -21.000164 -18.934946 -23.598266 -1.906294 8.985964 1.560790 30.981593 -18.004534 7.384946 164.217301 -52.586912 -172.016348 20.351851 -7.238574 33.439183 9.231035 -56.760826 -13.397991 -135.994014 70.973351 -128.652039 1.230098 -8.950729 -15.861397 -0.004130 -0.007814 -0.001875 -18.182852 -63.050215 1.367896 66.558059 85.195450 60.917114 -4.967386 -24.089548 -0.140012 0.000236 -0.006517 0.000107
101.846384 126.514707 131.233922 173.136566 -20.249180 -2.376586 -0.410716 12.463900 3.732253 -0.061736 0.981135 0.295935 -0.107243 1.664409 0.502255 -0.406701 11.308886 3.383449 0.865399 18.673068 -2.869387 1.615649 -5.944036 -3.287906 2.713989 7.277019 -7.411192 -16.713817 -20.770314 -20.641267 -145.030144 -57.365605 154.980361 -20.994975 -18.941577 -23.603446 -1.903542 8.981626 1.557692 30.971155 -18.030372 7.399847 164.209746 -52.539609 -172.006102 20.345374 -7.206007 33.479268 9.240027 -56.753629 -13.411809 -135.985128 70.967458 -128.630574 1.234142 -8.968003 -15.861602 -0.003176 -0.003103 -0.001442 -18.191027 -63.056939 1.365680 66.520325 85.176726 60.878577 -5.005602 -24.035681 -0.108481 -0.000208 -0.006573 -0.000094
101.846977 126.514286 131.233344 173.138244 -20.239962 -2.378203 -0.408645 12.461468 3.734102 -0.061594 0.980741 0.295830 -0.104372 1.663741 0.503863 -0.408497 11.306831 3.383170 0.901039 18.702146 -2.901105 1.614290 -5.945948 -3.283908 2.715037 7.282730 -7.412147 -16.719338 -20.774433 -20.629841 -145.023646 -57.368794 154.958550 -20.990686 -18.954699 -23.606808 -1.903621 8.983873 1.554907 30.961155 -18.055031 7.414643 164.195387 -52.538594 -171.981613 20.343936 -7.212248 33.491119 9.241506 -56.755924 -13.411694 -135.980858 70.967909 -128.621843 1.234746 -8.976670 -15.863613 -0.003325 -0.002168 -0.001510 -18.193612 -63.063290 1.366709 66.488876 85.169367 60.847417 -5.011568 -23.992277 -0.082824 0.001744 -0.006189 0.000792
101.847297 126.514083 131.232189 173.140602 -20.234426 -2.377951 -0.407178 12.464115 3.733336 -0.061272 0.980579 0.295726 -0.106051 1.660103 0.503816 -0.405627 11.303818 3.382966 0.917299 18.717825 -2.913041 1.632068 -5.933980 -3.299186 2.718347 7.292275 -7.410580 -16.718808 -20.775016 -20.620732 -144.975551 -57.365810 154.904541 -20.976336 -18.964306 -23.644397 -1.894015 8.989048 1.553965 30.945249 -18.104460 7.430616 164.167157 -52.558307 -171.945618 20.341868 -7.233559 33.501849 9.242166 -56.756827 -13.413411 -136.013212 70.966482 -128.652493 1.239386 -8.996473 -15.869134 -0.004699 -0.002310 -0.002133 -18.181871 -63.066699 1.351420 66.472939 85.159615 60.834447 -5.004038 -23.945831 -0.059538 0.004695 -0.005050 0.002132
